<svg width="2248" height="856" viewBox="0 0 2248 856" fill="none" xmlns="http://www.w3.org/2000/svg">
<g clipPath="url(#clip0_14_1550)">
<path d="M351.637 397.72H252.277V847H67.5972V397.72H0.637207V244.36H67.5972V227.08C67.5972 152.92 88.8373 96.7599 131.317 58.5999C173.797 19.7199 236.077 0.279907 318.157 0.279907C331.837 0.279907 341.917 0.639902 348.397 1.35989V157.96C313.117 155.8 288.277 160.84 273.877 173.08C259.477 185.32 252.277 207.28 252.277 238.96V244.36H351.637V397.72ZM1168.5 535.96C1168.5 553.24 1167.42 571.24 1165.26 589.96H747.297C750.177 627.4 762.057 656.2 782.937 676.36C804.537 695.8 830.817 705.52 861.777 705.52C907.857 705.52 939.897 686.08 957.897 647.2H1154.46C1144.38 686.8 1126.02 722.44 1099.38 754.12C1073.46 785.8 1040.7 810.64 1001.1 828.64C961.497 846.64 917.217 855.64 868.257 855.64C809.217 855.64 756.657 843.04 710.577 817.84C664.497 792.64 628.497 756.64 602.577 709.84C576.657 663.04 563.697 608.32 563.697 545.68C563.697 483.04 576.297 428.32 601.497 381.52C627.417 334.72 663.417 298.72 709.497 273.52C755.577 248.32 808.497 235.72 868.257 235.72C926.577 235.72 978.417 247.96 1023.78 272.44C1069.14 296.92 1104.42 331.84 1129.62 377.2C1155.54 422.56 1168.5 475.48 1168.5 535.96ZM979.497 487.36C979.497 455.68 968.697 430.48 947.097 411.76C925.497 393.04 898.497 383.68 866.097 383.68C835.137 383.68 808.857 392.68 787.257 410.68C766.377 428.68 753.417 454.24 748.377 487.36H979.497ZM1612.6 344.8C1634.2 311.68 1661.2 285.76 1693.6 267.04C1726 247.6 1762 237.88 1801.6 237.88V433.36H1750.84C1704.76 433.36 1670.2 443.44 1647.16 463.6C1624.12 483.04 1612.6 517.6 1612.6 567.28V847H1427.92V244.36H1612.6V344.8Z" fill="#E1DEE3"/>
<path d="M2138.28 855.64C2105.88 855.64 2079.24 846.28 2058.36 827.56C2038.2 808.12 2028.12 784.36 2028.12 756.28C2028.12 727.48 2038.2 703.36 2058.36 683.92C2079.24 664.48 2105.88 654.76 2138.28 654.76C2169.96 654.76 2195.88 664.48 2216.04 683.92C2236.92 703.36 2247.36 727.48 2247.36 756.28C2247.36 784.36 2236.92 808.12 2216.04 827.56C2195.88 846.28 2169.96 855.64 2138.28 855.64Z" fill="#E84855"/>
</g>
<defs>
<clipPath id="clip0_14_1550">
<rect width="2248" height="856" fill="white"/>
</clipPath>
</defs>
</svg>
